# xmcd
#
# Track frame offsets: 
#        150
#        26599
#        44411
#        69095
#        86591
#        133275
#        151655
#        174005
#        195875
#        205265
#        233827
#        257506
#        271275
#        298634
#        324517
#
# Disc length: 4557 seconds
#
# Revision: 2
# Processed by: cddbd v1.5.2PL0 Copyright (c) Steve Scherf et al.
# Submitted via: ExactAudioCopyFreeDBPlugin 1.0
#
DISCID=c211cb0f
DTITLE=Various Artist - This Is The Blues Vol. 1
DYEAR=2010
DGENRE=Blues
TTITLE0=J. Beck E. Green R. Bailey D. Hadley - Hobo Blues
TTITLE1=L. McCray N. Neal S. McCRay Tony Z - Black Magic Woman
TTITLE2=V. Converse I. Sibun S. Robinson LJ Frenchwood G. Joffe J. Bag
TTITLE2=gott - Rattlesnake Shake
TTITLE3=Savoy Brown - Going Down To Mobile
TTITLE4=M. Taylor M. Middelton R. "Crackle" Ahwai K. Harada J. Allen /
TTITLE4=You Shook Me
TTITLE5=Z. Hooker J. Johnson B. Murray T. Cook D. Daniel M. Green V. P
TTITLE5=uebla - I Want To Hug You
TTITLE6=L. Mitchell J. Aston W. Bascomb J. Mover - I Loved Another Wom
TTITLE6=an
TTITLE7=H. Mandel J. Paris W. Bascomb D. Duewhite P. Brown - Long Grey
TTITLE7=Mare
TTITLE8=R. Gomez P. McMahon B. Chouinard "Even" S. Levee - Evil Woman 
TTITLE8=Blues
TTITLE9=J. Bruce G. Moore G. Husband - I'm In The Mood
TTITLE10=L. Grosvenor J. Roden D. Moore M. Kellie A. Bender S. Dolan P
TTITLE10=Brown - Crying Won't Bring You Back
TTITLE11=Tony (T.S.) McPhee - Drop Down Mama
TTITLE12=P. Jones O. Grand M. Hobart S. Wren C. Löpez P. "Jr" Delmas /
TTITLE12=Play On Little Girl and T-Bone Shuffle
TTITLE13=Tony (T.S.) McPhee Dick Heckstall-Smith  - Ground Hog Blues
TTITLE14=C. Jagger C. Hart Ed Beane M. Mortimore M. Jagger - Racketeer
TTITLE14=Blues
EXTD=
EXTT0=
EXTT1=
EXTT2=
EXTT3=
EXTT4=
EXTT5=
EXTT6=
EXTT7=
EXTT8=
EXTT9=
EXTT10=
EXTT11=
EXTT12=
EXTT13=
EXTT14=
PLAYORDER=
